<svg xmlns="http://www.w3.org/2000/svg" viewBox="0 0 305.87 62.85"><defs><style>.cls-1,.cls-2{fill:none;stroke-linecap:round;stroke-linejoin:round;}.cls-1{stroke:#b4beca;stroke-width:5px;}.cls-2{stroke:#486cb4;stroke-width:4px;}.cls-3{fill:#486cb4;}</style></defs><g id="Layer_2" data-name="Layer 2"><g id="Layer_1-2" data-name="Layer 1"><path class="cls-1" d="M19.75,59.08c-.5-8.5-3.26-12.31-5.79-14.21-2.8-2.11-4.83-1.49-7.51-4.13-4.49-4.42-4-11.2-3.9-11.92,0-.46.85-8.1,6.65-11.47,3.37-2,4.76-.35,9-1.82C25,13.14,24.34,8,30.76,4.51c5.35-2.91,13.36-2.71,18.11.92,3,2.3,2.51,4.33,6.13,6.53a10.69,10.69,0,0,0,2,1c2.67.94,4.59.24,8.14,1.9,1,.47,6.78,3.12,8.26,8.25C75,28.46,70.43,31,72,36.84c1.08,3.95,3.38,3.78,4.13,7.57.88,4.47-1.4,9.39-4.82,12.38a15.2,15.2,0,0,1-11.69,3.44"/><polyline class="cls-2" points="30 48.99 40.21 38.79 50.18 48.77"/><line class="cls-2" x1="40.09" y1="60.35" x2="40.09" y2="38.79"/><path class="cls-3" d="M93.41,52.49a.91.91,0,0,1-.68-.27.93.93,0,0,1-.27-.68V26.84a.93.93,0,0,1,.27-.69.94.94,0,0,1,.68-.26h10.34a12,12,0,0,1,7.73,2.26,7.7,7.7,0,0,1,2.83,6.4A7.67,7.67,0,0,1,113,39.11a8.17,8.17,0,0,1-3.44,2.81l5.25,9.35a1,1,0,0,1,.11.42.76.76,0,0,1-.25.55.81.81,0,0,1-.58.25h-5a1.39,1.39,0,0,1-1.06-.36,3.12,3.12,0,0,1-.5-.67l-4.33-8.36H99.27v8.44a.92.92,0,0,1-1,1Zm5.86-14.75h4.4a3.69,3.69,0,0,0,2.68-.87,3.18,3.18,0,0,0,.9-2.4,3.37,3.37,0,0,0-.86-2.39,3.57,3.57,0,0,0-2.72-.91h-4.4Z"/><path class="cls-3" d="M127.16,52.87A10.17,10.17,0,0,1,120,50.43c-1.77-1.62-2.69-4-2.77-7.22V41.88a11.15,11.15,0,0,1,1.35-5.15A8.08,8.08,0,0,1,122,33.47a11,11,0,0,1,5.11-1.12,10.46,10.46,0,0,1,5.53,1.33,8.44,8.44,0,0,1,3.29,3.61,11.86,11.86,0,0,1,1.1,5.2v.91a.94.94,0,0,1-.95,1H123.93v.27a6.09,6.09,0,0,0,.38,2,3.14,3.14,0,0,0,1.06,1.45,2.91,2.91,0,0,0,1.75.53,2.82,2.82,0,0,0,1.27-.25,3.07,3.07,0,0,0,.86-.57,6.33,6.33,0,0,0,.53-.55,2,2,0,0,1,.55-.47,1.59,1.59,0,0,1,.67-.1h4.71a.91.91,0,0,1,.62.21.62.62,0,0,1,.21.59A3.34,3.34,0,0,1,135.9,49a7.86,7.86,0,0,1-1.77,1.8,9.44,9.44,0,0,1-2.91,1.47A13.09,13.09,0,0,1,127.16,52.87Zm-3.23-12.28h6.42v-.07a5.8,5.8,0,0,0-.36-2.13,3,3,0,0,0-1.1-1.41,3.14,3.14,0,0,0-1.77-.49,2.94,2.94,0,0,0-1.73.49,3.11,3.11,0,0,0-1.08,1.41,5.4,5.4,0,0,0-.38,2.13Z"/><path class="cls-3" d="M146.54,52.87a8.34,8.34,0,0,1-3.67-.78A6.61,6.61,0,0,1,140.31,50a5.24,5.24,0,0,1,1.25-7.28,13.58,13.58,0,0,1,5.85-2.15l4.75-.72V39.3a3.31,3.31,0,0,0-.57-2.09,2.55,2.55,0,0,0-2.09-.72,3.21,3.21,0,0,0-1.73.42,2.8,2.8,0,0,0-1,1.14,1.1,1.1,0,0,1-.95.49h-4.26a.8.8,0,0,1-.64-.25.67.67,0,0,1-.19-.59,3.26,3.26,0,0,1,.51-1.57,6.51,6.51,0,0,1,1.58-1.77,8.77,8.77,0,0,1,2.73-1.44,12.59,12.59,0,0,1,4-.57,13.72,13.72,0,0,1,4.22.57,7.43,7.43,0,0,1,2.83,1.59,6.47,6.47,0,0,1,1.61,2.42,8.32,8.32,0,0,1,.54,3V51.54a.91.91,0,0,1-.29.68.93.93,0,0,1-.66.27h-4.41a.93.93,0,0,1-.69-.27,1,1,0,0,1-.26-.68V50.21a5.59,5.59,0,0,1-1.33,1.33,7.32,7.32,0,0,1-2,1A8.51,8.51,0,0,1,146.54,52.87Zm1.78-4.34a4.16,4.16,0,0,0,2-.47,3.43,3.43,0,0,0,1.41-1.48,5.59,5.59,0,0,0,.51-2.53v-.53l-3.23.57a5.92,5.92,0,0,0-2.6.93,1.82,1.82,0,0,0-.82,1.46,1.62,1.62,0,0,0,.38,1.1,2.43,2.43,0,0,0,1,.71A3.66,3.66,0,0,0,148.32,48.53Z"/><path class="cls-3" d="M164,52.49a.93.93,0,0,1-.69-.27,1,1,0,0,1-.26-.68V26.46a.89.89,0,0,1,.95-.95h4.48a.89.89,0,0,1,.95.95V51.54a1,1,0,0,1-.26.68.93.93,0,0,1-.69.27Z"/><path class="cls-3" d="M183,52.87a10.17,10.17,0,0,1-7.15-2.44c-1.77-1.62-2.69-4-2.77-7.22V41.88a11.15,11.15,0,0,1,1.35-5.15,8.08,8.08,0,0,1,3.42-3.26A11,11,0,0,1,183,32.35a10.46,10.46,0,0,1,5.53,1.33,8.44,8.44,0,0,1,3.29,3.61,11.86,11.86,0,0,1,1.1,5.2v.91a.94.94,0,0,1-1,1H179.79v.27a6.09,6.09,0,0,0,.38,2,3.14,3.14,0,0,0,1.06,1.45,2.91,2.91,0,0,0,1.75.53,2.82,2.82,0,0,0,1.27-.25,3.07,3.07,0,0,0,.86-.57,6.33,6.33,0,0,0,.53-.55,2,2,0,0,1,.55-.47,1.59,1.59,0,0,1,.67-.1h4.71a.91.91,0,0,1,.62.21.62.62,0,0,1,.21.59,3.34,3.34,0,0,1-.64,1.56,7.86,7.86,0,0,1-1.77,1.8,9.44,9.44,0,0,1-2.91,1.47A13.09,13.09,0,0,1,183,52.87Zm-3.23-12.28h6.42v-.07a5.8,5.8,0,0,0-.36-2.13,3,3,0,0,0-1.1-1.41,3.14,3.14,0,0,0-1.77-.49,2.94,2.94,0,0,0-1.73.49,3.11,3.11,0,0,0-1.08,1.41,5.4,5.4,0,0,0-.38,2.13Z"/><path class="cls-3" d="M202.74,52.49a1.11,1.11,0,0,1-.84-.29,2.84,2.84,0,0,1-.45-.66L194.27,33.9a.74.74,0,0,1-.08-.34.79.79,0,0,1,.25-.59.84.84,0,0,1,.62-.24h4.3a1,1,0,0,1,.76.26,1.28,1.28,0,0,1,.34.53l4.29,11.67,4.34-11.67a1.28,1.28,0,0,1,.34-.53,1,1,0,0,1,.76-.26h4.29a.89.89,0,0,1,.61.24.78.78,0,0,1,.27.59.74.74,0,0,1-.08.34L208.1,51.54a2,2,0,0,1-.44.66,1.22,1.22,0,0,1-.89.29Z"/><path class="cls-3" d="M223.37,52.87a8.3,8.3,0,0,1-3.66-.78A6.64,6.64,0,0,1,217.14,50a5.07,5.07,0,0,1-.95-3,5,5,0,0,1,2.21-4.28,13.53,13.53,0,0,1,5.85-2.15l4.75-.72V39.3a3.31,3.31,0,0,0-.57-2.09,2.55,2.55,0,0,0-2.09-.72,3.19,3.19,0,0,0-1.73.42,2.9,2.9,0,0,0-1.05,1.14,1.07,1.07,0,0,1-.95.49h-4.25a.82.82,0,0,1-.65-.25.73.73,0,0,1-.19-.59,3.26,3.26,0,0,1,.51-1.57,6.68,6.68,0,0,1,1.58-1.77,8.72,8.72,0,0,1,2.74-1.44,12.5,12.5,0,0,1,4-.57,13.65,13.65,0,0,1,4.21.57,7.36,7.36,0,0,1,2.83,1.59A6.49,6.49,0,0,1,235,36.93a8.53,8.53,0,0,1,.53,3V51.54a.9.9,0,0,1-.28.68,1,1,0,0,1-.67.27h-4.41a.91.91,0,0,1-.68-.27.93.93,0,0,1-.27-.68V50.21a5.59,5.59,0,0,1-1.33,1.33,7.25,7.25,0,0,1-2,1A8.57,8.57,0,0,1,223.37,52.87Zm1.79-4.34a4.12,4.12,0,0,0,2-.47,3.32,3.32,0,0,0,1.41-1.48,5.59,5.59,0,0,0,.51-2.53v-.53l-3.23.57a5.92,5.92,0,0,0-2.6.93,1.84,1.84,0,0,0-.82,1.46,1.67,1.67,0,0,0,.38,1.1,2.57,2.57,0,0,0,1,.71A3.72,3.72,0,0,0,225.16,48.53Z"/><path class="cls-3" d="M240.82,52.49a.93.93,0,0,1-.69-.27.92.92,0,0,1-.26-.68V33.68a.89.89,0,0,1,.95-1h4.36a.91.91,0,0,1,1,1v1.44a8.08,8.08,0,0,1,2.58-2,8.34,8.34,0,0,1,3.76-.79,7.68,7.68,0,0,1,3.9,1A6.91,6.91,0,0,1,259,36.24a10.43,10.43,0,0,1,1,4.69V51.54a.91.91,0,0,1-.29.68.93.93,0,0,1-.66.27h-4.79a.94.94,0,0,1-.67-.27.9.9,0,0,1-.28-.68V41.16a4,4,0,0,0-.86-2.75,3.18,3.18,0,0,0-2.53-1,3.27,3.27,0,0,0-2.48,1,3.8,3.8,0,0,0-.93,2.75V51.54a.91.91,0,0,1-.29.68.93.93,0,0,1-.66.27Z"/><path class="cls-3" d="M273.34,52.87a11.6,11.6,0,0,1-5-1,8.15,8.15,0,0,1-3.43-3,9.09,9.09,0,0,1-1.39-4.7c0-.4,0-.91,0-1.53s0-1.14,0-1.54a9.27,9.27,0,0,1,1.37-4.74,8.07,8.07,0,0,1,3.44-3,11.65,11.65,0,0,1,5-1,12,12,0,0,1,4.49.74,9.66,9.66,0,0,1,3,1.84,8.42,8.42,0,0,1,1.76,2.26,4.92,4.92,0,0,1,.63,2,.75.75,0,0,1-.27.67,1,1,0,0,1-.68.28h-4.83a1,1,0,0,1-.64-.19,1.69,1.69,0,0,1-.42-.57,3.52,3.52,0,0,0-1.16-1.67,3.06,3.06,0,0,0-1.8-.49,2.85,2.85,0,0,0-2.34,1,5,5,0,0,0-.89,3c0,1,0,1.91,0,2.69a4.84,4.84,0,0,0,.89,3,2.88,2.88,0,0,0,2.34,1,3.13,3.13,0,0,0,1.86-.49,3.46,3.46,0,0,0,1.1-1.67,1.79,1.79,0,0,1,.42-.57,1,1,0,0,1,.64-.19h4.83a1,1,0,0,1,.68.28.75.75,0,0,1,.27.67,4.71,4.71,0,0,1-.38,1.5,7.87,7.87,0,0,1-1.06,1.8,8.22,8.22,0,0,1-1.88,1.77,9.68,9.68,0,0,1-2.8,1.31A13.11,13.11,0,0,1,273.34,52.87Z"/><path class="cls-3" d="M289.68,59.71a.81.81,0,0,1-.57-.23.77.77,0,0,1-.22-.57,1.79,1.79,0,0,1,0-.21,1.43,1.43,0,0,1,.1-.29l3-7.14L284.67,34a1.16,1.16,0,0,1-.12-.46,1.29,1.29,0,0,1,.31-.59.75.75,0,0,1,.57-.24h4.33a1,1,0,0,1,.72.24,1.68,1.68,0,0,1,.34.55l4.37,11.06,4.45-11.06A2.09,2.09,0,0,1,300,33a1,1,0,0,1,.74-.24H305a.8.8,0,0,1,.58.24.76.76,0,0,1,.25.55,1.62,1.62,0,0,1-.11.5L295,58.91a1.4,1.4,0,0,1-.38.55,1.09,1.09,0,0,1-.76.25Z"/></g></g></svg>