<svg xmlns="http://www.w3.org/2000/svg" viewBox="0 0 78.85 62.85"><defs><style>.cls-1,.cls-2{fill:none;stroke-linecap:round;stroke-linejoin:round;}.cls-1{stroke:#b4beca;stroke-width:5px;}.cls-2{stroke:#486cb4;stroke-width:4px;}</style></defs><g id="Layer_2" data-name="Layer 2"><g id="Layer_1-2" data-name="Layer 1"><path class="cls-1" d="M19.75,59.08c-.5-8.5-3.26-12.31-5.79-14.21-2.8-2.11-4.83-1.49-7.51-4.13-4.49-4.42-4-11.2-3.9-11.92,0-.46.85-8.1,6.65-11.47,3.37-2,4.76-.35,9-1.82C25,13.14,24.34,8,30.76,4.51c5.35-2.91,13.36-2.71,18.11.92,3,2.3,2.51,4.33,6.13,6.53a10.69,10.69,0,0,0,2,1c2.67.94,4.59.24,8.14,1.9,1,.47,6.78,3.12,8.26,8.25C75,28.46,70.43,31,72,36.84c1.08,3.95,3.38,3.78,4.13,7.57.88,4.47-1.4,9.39-4.82,12.38a15.2,15.2,0,0,1-11.69,3.44"/><polyline class="cls-2" points="30 48.99 40.21 38.79 50.18 48.77"/><line class="cls-2" x1="40.09" y1="60.35" x2="40.09" y2="38.79"/></g></g></svg>